{
  "accessors": [
    {
      "bufferView": 2,
      "componentType": 5126,
      "count": 65532,
      "max": [
        12.038786888122559,
        16.074123382568359,
        1.9972360134124756
      ],
      "min": [
        -0.56227898597717285,
        14.950060844421387,
        -0.93921101093292236
      ],
      "type": "VEC3"
    },
    {
      "bufferView": 2,
      "byteOffset": 786384,
      "componentType": 5126,
      "count": 65532,
      "max": [
        0.99551427364349365,
        0.9999997615814209,
        0.99989062547683716
      ],
      "min": [
        -0.99931681156158447,
        -0.99999946355819702,
        -0.99995309114456177
      ],
      "type": "VEC3"
    },
    {
      "bufferView": 3,
      "componentType": 5126,
      "count": 65532,
      "max": [
        0.94901961088180542,
        0.89019608497619629,
        0.84705883264541626,
        1
      ],
      "min": [
        0.10196078568696976,
        0.098039217293262482,
        0.098039217293262482,
        1
      ],
      "type": "VEC4"
    },
    {
      "bufferView": 1,
      "componentType": 5126,
      "count": 65532,
      "max": [
        0.89614200592041016,
        0.97406399250030518
      ],
      "min": [
        0,
        0
      ],
      "type": "VEC2"
    },
    {
      "bufferView": 0,
      "componentType": 5125,
      "count": 378897,
      "max": [
        65531
      ],
      "min": [
        0
      ],
      "type": "SCALAR"
    },
    {
      "bufferView": 2,
      "byteOffset": 1572768,
      "componentType": 5126,
      "count": 29552,
      "max": [
        11.422800064086914,
        15.912295341491699,
        1.9764770269393921
      ],
      "min": [
        -4.7655801773071289,
        14.797192573547363,
        -0.79444402456283569
      ],
      "type": "VEC3"
    },
    {
      "bufferView": 2,
      "byteOffset": 1927392,
      "componentType": 5126,
      "count": 29552,
      "max": [
        0.9968559741973877,
        0.99999803304672241,
        0.99998891353607178
      ],
      "min": [
        -0.99987238645553589,
        -0.99999010562896729,
        -0.99937140941619873
      ],
      "type": "VEC3"
    },
    {
      "bufferView": 3,
      "byteOffset": 1048512,
      "componentType": 5126,
      "count": 29552,
      "max": [
        0.92941176891326904,
        0.92941176891326904,
        0.90588235855102539,
        1
      ],
      "min": [
        0.10588235408067703,
        0.10196078568696976,
        0.11764705926179886,
        1
      ],
      "type": "VEC4"
    },
    {
      "bufferView": 1,
      "byteOffset": 524256,
      "componentType": 5126,
      "count": 29552,
      "max": [
        0.97228097915649414,
        1
      ],
      "min": [
        0,
        0.043786998838186264
      ],
      "type": "VEC2"
    },
    {
      "bufferView": 0,
      "byteOffset": 1515588,
      "componentType": 5125,
      "count": 161103,
      "max": [
        29551
      ],
      "min": [
        0
      ],
      "type": "SCALAR"
    }
  ],
  "asset": {
    "extras": {
      "author": "Archaeological museum (https://sketchfab.com/archmsfbsu)",
      "license": "CC0-1.0 (http://creativecommons.org/publicdomain/zero/1.0/)",
      "source": "https://sketchfab.com/3d-models/no10-205f086b616245f996f7d5ecfcef722e",
      "title": "Кинжал №10"
    },
    "generator": "Sketchfab-8.42.0",
    "version": "2.0"
  },
  "bufferViews": [
    {
      "buffer": 0,
      "byteLength": 2160000,
      "byteOffset": 0,
      "name": "floatBufferViews",
      "target": 34963
    },
    {
      "buffer": 0,
      "byteLength": 760672,
      "byteOffset": 2160000,
      "byteStride": 8,
      "name": "floatBufferViews",
      "target": 34962
    },
    {
      "buffer": 0,
      "byteLength": 2282016,
      "byteOffset": 2920672,
      "byteStride": 12,
      "name": "floatBufferViews",
      "target": 34962
    },
    {
      "buffer": 0,
      "byteLength": 1521344,
      "byteOffset": 5202688,
      "byteStride": 16,
      "name": "floatBufferViews",
      "target": 34962
    }
  ],
  "buffers": [
    {
      "byteLength": 6724032,
      "uri": "scene.bin"
    }
  ],
  "images": [
    {
      "uri": "textures/Dg_10_baseColor.jpeg"
    }
  ],
  "materials": [
    {
      "doubleSided": true,
      "emissiveFactor": [
        0,
        0,
        0
      ],
      "name": "Dg_10",
      "pbrMetallicRoughness": {
        "baseColorFactor": [
          1,
          1,
          1,
          1
        ],
        "baseColorTexture": {
          "index": 0,
          "texCoord": 0
        },
        "metallicFactor": 0,
        "roughnessFactor": 1
      }
    }
  ],
  "meshes": [
    {
      "primitives": [
        {
          "attributes": {
            "COLOR_0": 2,
            "NORMAL": 1,
            "POSITION": 0,
            "TEXCOORD_0": 3
          },
          "indices": 4,
          "material": 0,
          "mode": 4
        }
      ]
    },
    {
      "primitives": [
        {
          "attributes": {
            "COLOR_0": 7,
            "NORMAL": 6,
            "POSITION": 5,
            "TEXCOORD_0": 8
          },
          "indices": 9,
          "material": 0,
          "mode": 4
        }
      ]
    }
  ],
  "nodes": [
    {
      "children": [
        1
      ],
      "name": "RootNode (gltf orientation matrix)",
      "rotation": [
        -0.70710678118654746,
        -0,
        -0,
        0.70710678118654757
      ]
    },
    {
      "children": [
        2
      ],
      "matrix": [
        0.95593971014022827,
        0.011633905582129955,
        -0.29333242774009705,
        0,
        -0.044769503176212311,
        0.99330389499664307,
        -0.10650354623794556,
        0,
        0.29012918472290039,
        0.11494331806898117,
        0.95005953311920166,
        0,
        0.72417360544204712,
        0.064257539808750153,
        3.0988113880157471,
        1
      ],
      "name": "RootNode (model correction matrix)"
    },
    {
      "children": [
        3,
        4
      ],
      "name": "Dg_10.obj.cleaner.materialmerger.gles"
    },
    {
      "mesh": 0,
      "name": ""
    },
    {
      "mesh": 1,
      "name": ""
    }
  ],
  "samplers": [
    {
      "magFilter": 9729,
      "minFilter": 9987,
      "wrapS": 10497,
      "wrapT": 10497
    }
  ],
  "scene": 0,
  "scenes": [
    {
      "name": "OSG_Scene",
      "nodes": [
        0
      ]
    }
  ],
  "textures": [
    {
      "sampler": 0,
      "source": 0
    }
  ]
}

